<svg width="23" height="21" viewBox="0 0 23 21" fill="none" xmlns="http://www.w3.org/2000/svg">
<path d="M1.91667 0C0.858507 0 0 0.881836 0 1.96875V10.5H5.75C6.10139 10.5 6.38889 10.7953 6.38889 11.1562C6.38889 11.5172 6.10139 11.8125 5.75 11.8125H0V14.4375H5.75C6.10139 14.4375 6.38889 14.7328 6.38889 15.0938C6.38889 15.4547 6.10139 15.75 5.75 15.75H0V19.0312C0 20.1182 0.858507 21 1.91667 21H10.6175C10.366 20.5816 10.2222 20.0895 10.2222 19.5604C10.2222 17.6367 11.2524 15.9592 12.7778 15.0814V1.96875C12.7778 0.881836 11.9193 0 10.8611 0H1.91667ZM6.06944 2.625H6.70833C7.05972 2.625 7.34722 2.92031 7.34722 3.28125V4.26562H8.30556C8.65694 4.26562 8.94444 4.56094 8.94444 4.92188V5.57812C8.94444 5.93906 8.65694 6.23438 8.30556 6.23438H7.34722V7.21875C7.34722 7.57969 7.05972 7.875 6.70833 7.875H6.06944C5.71806 7.875 5.43056 7.57969 5.43056 7.21875V6.23438H4.47222C4.12083 6.23438 3.83333 5.93906 3.83333 5.57812V4.92188C3.83333 4.56094 4.12083 4.26562 4.47222 4.26562H5.43056V3.28125C5.43056 2.92031 5.71806 2.625 6.06944 2.625ZM20.4444 11.1562C20.4444 10.286 20.1079 9.45141 19.5088 8.83606C18.9097 8.2207 18.0972 7.875 17.25 7.875C16.4028 7.875 15.5903 8.2207 14.9912 8.83606C14.3921 9.45141 14.0556 10.286 14.0556 11.1562C14.0556 12.0265 14.3921 12.8611 14.9912 13.4764C15.5903 14.0918 16.4028 14.4375 17.25 14.4375C18.0972 14.4375 18.9097 14.0918 19.5088 13.4764C20.1079 12.8611 20.4444 12.0265 20.4444 11.1562ZM11.5 19.5686C11.5 20.3602 12.1229 21 12.8936 21H21.6064C22.3771 21 23 20.3602 23 19.5686C23 17.4604 21.3349 15.75 19.2825 15.75H15.2175C13.1651 15.75 11.5 17.4604 11.5 19.5686Z" fill="#4F6DCD"/>
</svg>
