<svg width="16" height="17" viewBox="0 0 16 17" fill="none" xmlns="http://www.w3.org/2000/svg">
<path fill-rule="evenodd" clip-rule="evenodd" d="M4.80156 2.1001C4.58939 2.1001 4.38591 2.18438 4.23588 2.33441C4.08585 2.48444 4.00156 2.68792 4.00156 2.9001V3.7001H3.20156C2.77722 3.7001 2.37025 3.86867 2.07019 4.16873C1.77013 4.46879 1.60156 4.87575 1.60156 5.3001V13.3001C1.60156 13.7244 1.77013 14.1314 2.07019 14.4315C2.37025 14.7315 2.77722 14.9001 3.20156 14.9001H12.8016C13.2259 14.9001 13.6329 14.7315 13.9329 14.4315C14.233 14.1314 14.4016 13.7244 14.4016 13.3001V5.3001C14.4016 4.87575 14.233 4.46879 13.9329 4.16873C13.6329 3.86867 13.2259 3.7001 12.8016 3.7001H12.0016V2.9001C12.0016 2.68792 11.9173 2.48444 11.7672 2.33441C11.6172 2.18438 11.4137 2.1001 11.2016 2.1001C10.9894 2.1001 10.7859 2.18438 10.6359 2.33441C10.4858 2.48444 10.4016 2.68792 10.4016 2.9001V3.7001H5.60156V2.9001C5.60156 2.68792 5.51728 2.48444 5.36725 2.33441C5.21722 2.18438 5.01374 2.1001 4.80156 2.1001ZM4.80156 6.1001C4.58939 6.1001 4.38591 6.18438 4.23588 6.33441C4.08585 6.48444 4.00156 6.68792 4.00156 6.9001C4.00156 7.11227 4.08585 7.31575 4.23588 7.46578C4.38591 7.61581 4.58939 7.7001 4.80156 7.7001H11.2016C11.4137 7.7001 11.6172 7.61581 11.7672 7.46578C11.9173 7.31575 12.0016 7.11227 12.0016 6.9001C12.0016 6.68792 11.9173 6.48444 11.7672 6.33441C11.6172 6.18438 11.4137 6.1001 11.2016 6.1001H4.80156Z" fill="#4F6DCD"/>
</svg>
