<svg width="32" height="33" viewBox="0 0 32 33" fill="none" xmlns="http://www.w3.org/2000/svg">
<g clip-path="url(#clip0_13_6856)">
<path d="M21.8145 0.631252C21.2332 0.712502 20.9207 0.850002 19.5394 1.64375C9.28945 7.53125 2.18945 11.675 2.1332 11.7938C2.05195 11.975 2.1332 12.2188 2.3082 12.3125C2.3957 12.3563 2.5957 12.3563 2.9832 12.3125C3.72695 12.2313 25.7707 12.225 26.5145 12.3125C27.5082 12.425 28.3082 12.8125 29.0019 13.5C29.7644 14.2688 30.1019 15.0313 30.2019 16.25C30.2394 16.6813 30.2957 17.0688 30.3332 17.1063C30.3644 17.15 30.5019 17.1875 30.6332 17.1875C30.8519 17.1875 30.9019 17.1563 31.1332 16.8625C31.9519 15.8313 32.1144 14.3125 31.5207 13.1625C31.4207 12.9813 29.9519 10.4125 28.2519 7.4625C25.2832 2.3125 25.1395 2.075 24.6894 1.61875C23.902 0.818752 22.902 0.481253 21.8145 0.631252ZM26.202 5.59375C26.7145 6.48125 27.1082 7.225 27.0832 7.25C27.0582 7.275 25.3895 8.2375 23.3895 9.4L19.7395 11.5L15.9457 11.4875L12.1519 11.4688L18.6582 7.70625C22.2332 5.6375 25.1832 3.95625 25.2145 3.9625C25.2457 3.96875 25.6894 4.7 26.202 5.59375Z" fill="#4F6DCD"/>
<path d="M2.44375 13.0997C1.3625 13.3872 0.425 14.3185 0.1 15.431C0.0125 15.7372 0 16.5435 0 22.7497C0 28.956 0.0125 29.7622 0.1 30.0685C0.43125 31.1935 1.36875 32.1185 2.46875 32.406C2.79375 32.4872 4.25625 32.4997 14.75 32.4997C27.8875 32.4997 26.9875 32.5247 27.7688 32.106C28.25 31.8497 28.85 31.2497 29.1063 30.7685C29.5188 30.006 29.5 30.3685 29.5 22.7497C29.5 15.131 29.5188 15.4935 29.1063 14.731C28.85 14.2497 28.25 13.6497 27.7688 13.3935C26.9875 12.9747 27.8938 12.9997 14.7188 13.006C4.5 13.006 2.73125 13.0185 2.44375 13.0997ZM7.21875 16.5435C7.55625 16.7185 7.80625 16.9747 7.9625 17.3122C8.08125 17.5685 8.09375 17.706 8.09375 18.7185C8.09375 20.0372 8.03125 20.2747 7.6 20.6747C7.19375 21.0497 7.00625 21.0935 5.71875 21.0935C4.475 21.0935 4.2375 21.0372 3.85 20.6497C3.4625 20.2622 3.40625 20.0247 3.40625 18.7497C3.40625 17.4747 3.4625 17.2372 3.85 16.856C4.26875 16.4372 4.55625 16.3747 5.9375 16.3997C6.8375 16.4122 7 16.431 7.21875 16.5435ZM7.65625 26.4372C7.8125 26.4747 7.98125 26.5747 8.1125 26.7122C8.28125 26.8997 8.3125 26.981 8.3125 27.2497C8.3125 27.5185 8.28125 27.5997 8.1125 27.7872C7.98125 27.9247 7.8125 28.0247 7.65625 28.0622C7.33125 28.1372 4.41875 28.1372 4.09375 28.0622C3.9375 28.0247 3.76875 27.9247 3.64375 27.7872C3.46875 27.5997 3.4375 27.5185 3.4375 27.2497C3.4375 26.981 3.46875 26.8997 3.64375 26.7122C3.75625 26.5872 3.9375 26.4685 4.0625 26.4372C4.36875 26.3685 7.35 26.3622 7.65625 26.4372ZM16.6562 26.4372C16.8125 26.4747 16.9813 26.5747 17.1125 26.7122C17.2812 26.8997 17.3125 26.981 17.3125 27.2497C17.3125 27.5185 17.2812 27.5997 17.1125 27.7872C16.9813 27.9247 16.8125 28.0247 16.6562 28.0622C16.3313 28.1372 13.1687 28.1372 12.8438 28.0622C12.6875 28.0247 12.5188 27.9247 12.3938 27.7872C12.2188 27.5997 12.1875 27.5185 12.1875 27.2497C12.1875 26.981 12.2188 26.8997 12.3938 26.7122C12.5063 26.5872 12.6875 26.4685 12.8125 26.4372C13.1188 26.3685 16.35 26.3622 16.6562 26.4372ZM25.4062 26.4372C25.5625 26.4747 25.7313 26.5747 25.8625 26.7122C26.0312 26.8997 26.0625 26.981 26.0625 27.2497C26.0625 27.5185 26.0312 27.5997 25.8625 27.7872C25.7313 27.9247 25.5625 28.0247 25.4062 28.0622C25.0813 28.1372 22.1688 28.1372 21.8438 28.0622C21.6875 28.0247 21.5188 27.9247 21.3938 27.7872C21.2188 27.5997 21.1875 27.5185 21.1875 27.2497C21.1875 26.981 21.2188 26.8997 21.3938 26.7122C21.5063 26.5872 21.6875 26.4685 21.8125 26.4372C22.1187 26.3685 25.1 26.3622 25.4062 26.4372Z" fill="#4F6DCD"/>
</g>
<defs>
<clipPath id="clip0_13_6856">
<rect width="32" height="32" fill="white" transform="translate(0 0.5)"/>
</clipPath>
</defs>
</svg>
