<svg width="40" height="41" viewBox="0 0 40 41" fill="none" xmlns="http://www.w3.org/2000/svg">
<path d="M27.8906 6.03906C25.5469 6.67188 19.3125 8.35156 14.0312 9.76563L4.42969 12.3359L9.03125 12.3594L13.625 12.375L21.5 10.2656C25.8281 9.10938 29.4453 8.15625 29.5547 8.15625C29.7734 8.15625 30.0234 8.41406 30.1406 8.75781C30.2812 9.17969 30.6172 9.54688 31.0547 9.76563C31.4062 9.92969 31.5703 9.96094 32.0469 9.95313C32.3594 9.94531 32.6797 9.9375 32.75 9.94531C32.9609 9.96094 33.1094 10.2578 33.3281 11.0547C33.4375 11.4609 33.5547 11.9219 33.6016 12.0781L33.6797 12.375H34.9297C36.0859 12.375 36.1797 12.3672 36.1406 12.2344C36.125 12.1641 35.75 10.7734 35.3203 9.15625C34.8828 7.53906 34.4922 6.11719 34.4531 6C34.3047 5.625 34.0547 5.34375 33.6484 5.10938C32.9297 4.69531 32.75 4.72656 27.8906 6.03906Z" fill="#4F6DCD"/>
<path d="M23.7504 10.8594C20.805 11.6484 18.3675 12.3125 18.3207 12.3281C18.2816 12.3516 21.4457 12.3672 25.3597 12.3672L32.4847 12.375L32.3207 11.7578L32.1566 11.1406L31.641 11.1094C30.7504 11.0625 29.93 10.5391 29.2191 9.57812C29.1019 9.42188 29.0394 9.4375 23.7504 10.8594Z" fill="#4F6DCD"/>
<path d="M2.93004 13.7734C2.75817 13.8516 2.50817 14.0391 2.36754 14.1797C1.84411 14.7344 1.87536 14.1328 1.87536 23.6406C1.87536 31.8672 1.88317 32.2734 2.02379 32.5703C2.20348 32.9531 2.60192 33.3438 2.98473 33.5C3.24254 33.6094 5.07067 33.625 20.0004 33.625C34.93 33.625 36.7582 33.6094 37.016 33.5C37.3988 33.3438 37.7972 32.9531 37.9769 32.5703C38.1175 32.2734 38.1254 31.8672 38.1254 23.625C38.1254 15.3828 38.1175 14.9766 37.9769 14.6797C37.7972 14.2969 37.3988 13.9062 37.016 13.75C36.7582 13.6406 34.93 13.625 19.9847 13.625C3.8441 13.625 3.23473 13.6328 2.93004 13.7734ZM32.6879 16.2344C32.9613 16.3438 33.1254 16.6562 33.1254 17.0547C33.1332 17.75 34.0238 18.625 34.7269 18.625C35.1019 18.625 35.4457 18.8281 35.5394 19.0938C35.68 19.5 35.6566 27.8438 35.516 28.1875C35.4066 28.4531 35.0941 28.625 34.7113 28.625C34.0238 28.625 33.1332 29.5078 33.1254 30.1953C33.1254 30.5938 32.9613 30.9062 32.6879 31.0156C32.2972 31.1797 7.70348 31.1797 7.31286 31.0156C7.03942 30.9062 6.87536 30.5938 6.87536 30.1953C6.86754 29.5078 5.97692 28.625 5.28942 28.625C4.90661 28.625 4.59411 28.4531 4.48473 28.1875C4.34411 27.8438 4.32067 19.5 4.46129 19.0938C4.56286 18.8203 4.89879 18.625 5.28942 18.625C5.99254 18.6172 6.87536 17.7344 6.87536 17.0391C6.87536 16.6719 7.04723 16.3438 7.29723 16.2344C7.66442 16.0781 32.305 16.0703 32.6879 16.2344Z" fill="#4F6DCD"/>
<path d="M7.96875 17.5156C7.96875 17.8047 7.49219 18.6172 7.10938 18.9688C6.71875 19.3281 6.03125 19.7188 5.76562 19.7188C5.63281 19.7188 5.625 19.9609 5.625 23.625C5.625 27.2891 5.63281 27.5312 5.76562 27.5312C6.03125 27.5312 6.71875 27.9219 7.10938 28.2812C7.49219 28.6328 7.96875 29.4453 7.96875 29.7344C7.96875 29.8672 8.36719 29.875 20 29.875C31.6328 29.875 32.0312 29.8672 32.0312 29.7344C32.0312 29.4453 32.5078 28.6328 32.8984 28.2734C33.2344 27.9609 33.7266 27.6797 34.2422 27.5078C34.3672 27.4609 34.375 27.2031 34.375 23.5859C34.375 19.9531 34.3672 19.7188 34.2422 19.7188C33.9688 19.7188 33.2812 19.3281 32.8906 18.9688C32.5078 18.6172 32.0312 17.8047 32.0312 17.5156C32.0312 17.3828 31.6328 17.375 20 17.375C8.36719 17.375 7.96875 17.3828 7.96875 17.5156ZM21.2109 18.8281C22.8828 19.2188 24.3672 20.7031 24.8047 22.4141C24.9609 23.0234 24.9609 24.2344 24.8047 24.8281C24.0469 27.7031 20.9609 29.2969 18.2188 28.2344C16.7734 27.6797 15.5938 26.3438 15.1953 24.8359C15.0469 24.2422 15.0469 23.0078 15.1953 22.4141C15.5938 20.9062 16.7734 19.5703 18.2188 19.0156C19.2031 18.6328 20.1406 18.5781 21.2109 18.8281Z" fill="#4F6DCD"/>
<path d="M18.8105 20.0232C17.6777 20.3904 16.709 21.3826 16.373 22.5232C16.209 23.0779 16.209 24.1716 16.373 24.7263C16.709 25.8826 17.6855 26.8669 18.834 27.2263C19.8418 27.5388 21.1777 27.3748 22.0215 26.8357C23.1309 26.1169 23.7637 24.9607 23.7637 23.6248C23.7637 22.2888 23.1309 21.1326 22.0215 20.4138C21.1777 19.8748 19.8027 19.7107 18.8105 20.0232Z" fill="#4F6DCD"/>
</svg>
