<svg width="29" height="30" viewBox="0 0 29 30" fill="none" xmlns="http://www.w3.org/2000/svg">
<g clip-path="url(#clip0_13_6862)">
<path d="M7.41426 4.75371C3.66465 7.09863 0.509766 9.09238 0.402148 9.18867C0.130273 9.44355 0 9.74941 0 10.1742C0 10.7406 0.305859 11.2051 0.849609 11.4543L1.10449 11.5732H14.5H27.8955L28.1504 11.4543C28.6941 11.2051 29 10.7406 29 10.1742C29 9.74941 28.8697 9.44355 28.5979 9.18867C28.4902 9.09238 25.3354 7.09863 21.5857 4.75371C15.0324 0.664257 14.7605 0.5 14.5 0.5C14.2395 0.5 13.9676 0.664257 7.41426 4.75371ZM15.1627 4.79336C16.5051 5.25781 16.9695 6.98535 16.035 8.04453C15.5875 8.5543 14.8229 8.8375 14.2055 8.72422C13.5031 8.59395 12.9764 8.20312 12.6762 7.59141C12.5119 7.25723 12.4893 7.16094 12.4893 6.73047C12.4893 6.32266 12.5119 6.19805 12.6479 5.90918C12.8971 5.37109 13.3785 4.93496 13.8939 4.7707C14.2338 4.66875 14.8172 4.68008 15.1627 4.79336Z" fill="#4F6DCD"/>
<path d="M13.9331 5.43301C13.1005 5.80684 12.84 6.78672 13.3667 7.5457C13.8765 8.29336 15.1226 8.29336 15.6324 7.5457C16.3007 6.58281 15.655 5.31406 14.4996 5.31406C14.307 5.31406 14.0917 5.35938 13.9331 5.43301Z" fill="#4F6DCD"/>
<path d="M2.03906 18.4551V24.6855H4.13477H6.23047V20.1373C6.23047 14.9604 6.21348 15.1756 6.6666 14.7395C7.3123 14.1107 8.29785 14.2523 8.7623 15.0396L8.9209 15.3115L8.93789 19.9957L8.94922 24.6855H11.0449H13.1406V20.109C13.1406 14.9434 13.1236 15.1869 13.5711 14.7395C14.0469 14.2637 14.7662 14.2127 15.3043 14.6205C15.4346 14.7225 15.6045 14.932 15.6838 15.085L15.8311 15.3625L15.848 20.024L15.8594 24.6855H17.9551H20.0508L20.0621 19.9957L20.0791 15.3115L20.2377 15.0396C20.7021 14.2523 21.6877 14.1107 22.3334 14.7395C22.7865 15.1756 22.7695 14.9604 22.7695 20.1373V24.6855H24.8652H26.9609V18.4551V12.2246H14.5H2.03906V18.4551Z" fill="#4F6DCD"/>
<path d="M1.68789 25.3876C1.24609 25.5065 0.889258 25.8407 0.747656 26.2655C0.708008 26.3845 0.679688 26.8489 0.679688 27.455C0.679688 28.3839 0.691016 28.4745 0.815625 28.735C0.889258 28.8936 1.03086 29.0919 1.13281 29.1768C1.54063 29.5224 0.532422 29.4997 14.5057 29.4997H27.3008L27.5557 29.3808C27.8445 29.2448 28.0598 29.0126 28.2127 28.6784C28.3033 28.4858 28.3203 28.2989 28.3203 27.4266C28.3203 26.4241 28.3203 26.4015 28.1674 26.0956C27.9748 25.7218 27.635 25.4556 27.2441 25.3706C26.7967 25.2743 2.04473 25.2913 1.68789 25.3876Z" fill="#4F6DCD"/>
</g>
<defs>
<clipPath id="clip0_13_6862">
<rect width="29" height="29" fill="white" transform="translate(0 0.5)"/>
</clipPath>
</defs>
</svg>
