<svg width="22" height="22" viewBox="0 0 22 22" fill="none" xmlns="http://www.w3.org/2000/svg">
<path fill-rule="evenodd" clip-rule="evenodd" d="M5.55243 4.4551C6.99653 3.011 8.95516 2.19971 10.9974 2.19971C13.0397 2.19971 14.9983 3.011 16.4424 4.4551C17.8865 5.8992 18.6978 7.85783 18.6978 9.9001C18.6978 11.9424 17.8865 13.901 16.4424 15.3451L10.9974 20.7901L5.55243 15.3451C4.83734 14.6301 4.27009 13.7812 3.88308 12.8469C3.49607 11.9127 3.29688 10.9113 3.29688 9.9001C3.29688 8.88886 3.49607 7.88751 3.88308 6.95326C4.27009 6.019 4.83734 5.17012 5.55243 4.4551ZM10.9974 12.1001C11.5809 12.1001 12.1405 11.8683 12.5531 11.4557C12.9656 11.0432 13.1974 10.4836 13.1974 9.9001C13.1974 9.31662 12.9656 8.75705 12.5531 8.34447C12.1405 7.93188 11.5809 7.7001 10.9974 7.7001C10.414 7.7001 9.85438 7.93188 9.4418 8.34447C9.02922 8.75705 8.79743 9.31662 8.79743 9.9001C8.79743 10.4836 9.02922 11.0432 9.4418 11.4557C9.85438 11.8683 10.414 12.1001 10.9974 12.1001Z" fill="#4F6DCD"/>
</svg>
