<svg width="232" height="42" viewBox="0 0 232 42" fill="none" xmlns="http://www.w3.org/2000/svg">
<rect x="2.11719" y="28.7632" width="14.6371" height="2.11723" rx="1.05861" fill="#4F6DCD"/>
<rect y="23.8228" width="14.6371" height="2.11723" rx="1.05861" fill="#4F6DCD"/>
<rect x="0.703125" y="18.8828" width="13.0421" height="2.11723" rx="1.05861" fill="#4F6DCD"/>
<rect x="9.17188" y="32.9976" width="11.433" height="2.11723" rx="1.05861" fill="#4F6DCD"/>
<rect x="4.10938" y="13.9424" width="9.82393" height="2.11723" rx="1.05861" fill="#4F6DCD"/>
<rect x="7.32031" y="9.00244" width="6.61986" height="2.11723" rx="1.05861" fill="#4F6DCD"/>
<path d="M29.4385 3.61555C25.2721 5.02274 18.043 7.70606 17.3946 8.08545C17.236 8.18202 16.9669 8.40965 16.8014 8.5959C16.5186 8.90631 16.4841 8.99598 16.3461 9.64439C15.7667 12.4036 15.546 14.9076 15.5391 18.7773C15.5391 23.3783 15.815 25.227 16.7876 27.1653C18.0016 29.6003 20.5125 32.2836 23.9891 34.8841C25.6446 36.112 27.9072 37.5537 29.3833 38.3125C30.0111 38.6367 30.0386 38.6436 30.6526 38.6436C31.232 38.6436 31.3079 38.6229 31.7907 38.3883C33.2462 37.664 35.7295 36.0844 37.4747 34.7669C38.9646 33.6425 40.0407 32.7113 41.2341 31.511C42.8275 29.9038 43.8622 28.5311 44.5865 27.0549C45.2073 25.7857 45.3729 25.0821 45.5936 22.7782C45.7109 21.5986 45.7109 16.3148 45.5936 14.9145C45.3522 11.9621 45.0211 9.38227 44.8417 9.05116C44.6831 8.75455 44.214 8.27169 43.8898 8.08545C43.3035 7.74055 36.8677 5.32625 32.8185 3.93975C30.7767 3.23616 30.6043 3.22236 29.4385 3.61555ZM31.708 12.6726C32.4322 12.8106 32.9772 13.2107 33.2738 13.8246C33.46 14.1902 33.4669 14.2798 33.5152 15.5974C33.5428 16.363 33.5704 17.1632 33.5704 17.377L33.5773 17.7771H34.9776C36.4676 17.7771 37.185 17.8461 37.523 18.0255C37.8403 18.191 38.33 18.667 38.4749 18.9567C38.8405 19.6672 38.8405 21.6883 38.4749 22.3919C38.3162 22.7092 37.9782 23.0541 37.6126 23.261C37.2195 23.4956 36.5986 23.5714 34.9845 23.5714H33.5911L33.5497 25.1373C33.5221 26.0064 33.4738 26.8618 33.4325 27.0549C33.2945 27.7516 32.6806 28.4069 31.9563 28.6277C31.5976 28.7311 29.6386 28.7311 29.2592 28.6208C28.8591 28.5035 28.3624 28.1517 28.1348 27.8206C27.8313 27.3791 27.714 26.8894 27.714 26.0616C27.714 25.6615 27.6933 24.9372 27.6657 24.4613L27.6243 23.5852L25.9274 23.5507C23.8994 23.5163 23.7477 23.4749 23.1544 22.8885C22.5957 22.3298 22.5129 22.0332 22.5129 20.6743C22.5129 19.3154 22.5957 19.0188 23.1544 18.46C23.7477 17.8737 23.9063 17.8323 25.9067 17.7909C27.0725 17.7702 27.5968 17.7357 27.6174 17.6806C27.6312 17.6392 27.6657 16.839 27.7002 15.9078C27.7554 14.2523 27.7623 14.1971 27.9486 13.8246C28.2314 13.2382 28.8039 12.8037 29.4592 12.6726C29.8731 12.5967 31.2872 12.5898 31.708 12.6726Z" fill="#4F6DCD"/>
<path d="M52.988 19V5.16746H63.2241V7.85492H55.9521V10.5424H59.43C62.5918 10.5424 64.4295 11.9652 64.4295 14.6526V14.6724C64.4295 17.3401 62.6313 19 59.3115 19H52.988ZM55.9521 16.3125H59.3708C60.5564 16.3125 61.3864 15.7592 61.3864 14.7317V14.7119C61.3864 13.7436 60.6552 13.1706 59.3905 13.1706H55.9521V16.3125ZM69.6465 8.40822V11.4316H71.5831C74.1322 11.4316 75.8514 12.7161 75.8514 15.1664V15.1862C75.8514 17.4982 74.2508 19 71.3459 19H66.6626V8.40822H69.6465ZM69.6268 13.8227V16.5694H71.2669C72.2945 16.5694 72.907 16.1149 72.907 15.1862V15.1664C72.907 14.3957 72.334 13.8029 71.3064 13.8227H69.6268ZM77.3532 19V8.40822H80.3569V19H77.3532ZM88.0458 19.2371C84.8643 19.2371 82.5326 16.767 82.5326 13.7634V13.7239C82.5326 10.7005 84.8446 8.21062 88.0853 8.21062C90.0812 8.21062 91.3063 8.88248 92.3141 9.98909L90.4764 11.9652C89.7848 11.2538 89.1524 10.7993 88.0656 10.7993C86.5637 10.7993 85.4967 12.1035 85.4967 13.6844V13.7239C85.4967 15.364 86.544 16.6485 88.1841 16.6485C89.1919 16.6485 89.8836 16.2137 90.6147 15.5221L92.3734 17.3006C91.3459 18.4269 90.1602 19.2371 88.0458 19.2371ZM96.852 19V11.0759H93.4136V8.40822H103.294V11.0759H99.8556V19H96.852ZM105.354 22.1617V8.40822H108.358V9.9298C109.089 8.922 110.077 8.21062 111.658 8.21062C114.128 8.21062 116.48 10.1472 116.48 13.6844V13.7239C116.48 17.2611 114.168 19.1976 111.658 19.1976C110.057 19.1976 109.069 18.4665 108.358 17.6167V22.1617H105.354ZM110.887 16.6485C112.29 16.6485 113.476 15.5023 113.476 13.7239V13.6844C113.476 11.9256 112.29 10.7598 110.887 10.7598C109.484 10.7598 108.319 11.9256 108.319 13.6844V13.7239C108.319 15.4826 109.484 16.6485 110.887 16.6485ZM121.673 8.40822V11.4316H123.609C126.159 11.4316 127.878 12.7161 127.878 15.1664V15.1862C127.878 17.4982 126.277 19 123.372 19H118.689V8.40822H121.673ZM121.653 13.8227V16.5694H123.293C124.321 16.5694 124.933 16.1149 124.933 15.1862V15.1664C124.933 14.3957 124.36 13.8029 123.333 13.8227H121.653ZM129.38 19V8.40822H132.383V19H129.38ZM135.073 19V8.40822H138.057V14.2377L142.187 8.40822H145.012V19H142.029V12.9532L137.74 19H135.073ZM140.033 7.28186C137.918 7.28186 136.496 6.13574 136.318 4.1399H138.333C138.57 4.85128 139.025 5.32554 140.033 5.32554C141.04 5.32554 141.495 4.85128 141.732 4.1399H143.748C143.57 6.13574 142.147 7.28186 140.033 7.28186ZM152.867 16.2335H154.25L158.993 5.06865H162.194L166.897 16.2335H168.32V21.806H165.474V19H155.712V21.806H152.867V16.2335ZM160.554 8.42799L157.372 16.3521H163.735L160.554 8.42799ZM175.16 19.2371C171.899 19.2371 169.449 16.8263 169.449 13.7634V13.7239C169.449 10.6807 171.899 8.21062 175.199 8.21062C178.46 8.21062 180.91 10.6214 180.91 13.6844V13.7239C180.91 16.767 178.46 19.2371 175.16 19.2371ZM175.199 16.6485C176.919 16.6485 177.946 15.3443 177.946 13.7634V13.7239C177.946 12.1628 176.82 10.7993 175.16 10.7993C173.441 10.7993 172.413 12.1035 172.413 13.6844V13.7239C172.413 15.285 173.54 16.6485 175.199 16.6485ZM186.089 8.40822V12.3604H186.82L189.804 8.40822H193.46L189.132 13.5855L193.618 19H190.041L186.84 14.949H186.089V19H183.085V8.40822H186.089ZM197.663 19V11.0759H194.224V8.40822H204.105V11.0759H200.666V19H197.663ZM210.861 19.2371C207.6 19.2371 205.15 16.8263 205.15 13.7634V13.7239C205.15 10.6807 207.6 8.21062 210.9 8.21062C214.161 8.21062 216.611 10.6214 216.611 13.6844V13.7239C216.611 16.767 214.161 19.2371 210.861 19.2371ZM210.9 16.6485C212.619 16.6485 213.647 15.3443 213.647 13.7634V13.7239C213.647 12.1628 212.52 10.7993 210.861 10.7993C209.141 10.7993 208.114 12.1035 208.114 13.6844V13.7239C208.114 15.285 209.24 16.6485 210.9 16.6485ZM218.786 22.1617V8.40822H221.79V9.9298C222.521 8.922 223.509 8.21062 225.09 8.21062C227.56 8.21062 229.911 10.1472 229.911 13.6844V13.7239C229.911 17.2611 227.599 19.1976 225.09 19.1976C223.489 19.1976 222.501 18.4665 221.79 17.6167V22.1617H218.786ZM224.319 16.6485C225.722 16.6485 226.908 15.5023 226.908 13.7239V13.6844C226.908 11.9256 225.722 10.7598 224.319 10.7598C222.916 10.7598 221.75 11.9256 221.75 13.6844V13.7239C221.75 15.4826 222.916 16.6485 224.319 16.6485Z" fill="#4F6DCD"/>
<path opacity="0.5" d="M52.5858 38V29.1077H53.5893V33.0584H58.7215V29.1077H59.725V38H58.7215V33.9984H53.5893V38H52.5858ZM64.0285 38.1397C62.809 38.1397 61.5768 37.4538 61.5768 36.0945V36.0691C61.5768 34.6971 62.7201 33.9476 64.3842 33.9476C65.2353 33.9476 65.807 34.062 66.404 34.2271V33.9984C66.404 32.817 65.6799 32.2073 64.4477 32.2073C63.6728 32.2073 63.063 32.3978 62.4533 32.69L62.1611 31.8897C62.8852 31.5467 63.5839 31.3434 64.5493 31.3434C65.4767 31.3434 66.1881 31.5848 66.6708 32.0675C67.1154 32.5122 67.3441 33.16 67.3441 33.9857V38H66.404V37.0091C65.9467 37.6062 65.1972 38.1397 64.0285 38.1397ZM64.2191 37.3648C65.4386 37.3648 66.4167 36.628 66.4167 35.5864V34.9512C65.9213 34.8115 65.2988 34.6717 64.4858 34.6717C63.2536 34.6717 62.5676 35.2053 62.5676 36.031V36.0564C62.5676 36.8821 63.3425 37.3648 64.2191 37.3648ZM69.4287 40.0325V31.4324H70.4069V32.7535C70.9531 31.9786 71.7026 31.2926 72.9221 31.2926C74.4974 31.2926 76.0599 32.5376 76.0599 34.6971V34.7225C76.0599 36.8567 74.5101 38.1397 72.9221 38.1397C71.7026 38.1397 70.915 37.4919 70.4069 36.7424V40.0325H69.4287ZM72.7443 37.2632C74.0146 37.2632 75.0563 36.3232 75.0563 34.7352V34.7098C75.0563 33.1473 74.0019 32.1692 72.7443 32.1692C71.5248 32.1692 70.3688 33.2108 70.3688 34.6971V34.7225C70.3688 36.2469 71.5248 37.2632 72.7443 37.2632ZM78.8427 31.4324V34.2525H80.0368L82.4886 31.4324H83.7081L80.8244 34.6463L83.7843 38H82.5648L80.0622 35.1163H78.8427V38H77.8645V31.4324H78.8427ZM87.8097 38.1524C85.8407 38.1524 84.4052 36.6026 84.4052 34.7479V34.7225C84.4052 32.8551 85.8407 31.2926 87.8351 31.2926C89.8168 31.2926 91.2523 32.8424 91.2523 34.6971V34.7225C91.2523 36.5899 89.7914 38.1524 87.8097 38.1524ZM87.8351 37.2759C89.2579 37.2759 90.2487 36.1199 90.2487 34.7479V34.7225C90.2487 33.3125 89.1943 32.1565 87.8097 32.1565C86.3869 32.1565 85.4087 33.3125 85.4087 34.6971V34.7225C85.4087 36.1326 86.4504 37.2759 87.8351 37.2759ZM95.9159 31.3816L98.9012 38H97.8087L95.4586 32.5884L93.0958 38H92.0414L95.014 31.3816H95.9159ZM103.106 38.1524C101.137 38.1524 99.7013 36.6026 99.7013 34.7479V34.7225C99.7013 32.8551 101.137 31.2926 103.131 31.2926C105.113 31.2926 106.548 32.8424 106.548 34.6971V34.7225C106.548 36.5899 105.088 38.1524 103.106 38.1524ZM103.131 37.2759C104.554 37.2759 105.545 36.1199 105.545 34.7479V34.7225C105.545 33.3125 104.49 32.1565 103.106 32.1565C101.683 32.1565 100.705 33.3125 100.705 34.6971V34.7225C100.705 36.1326 101.747 37.2759 103.131 37.2759ZM108.32 38V31.4324H113.097V32.3216H109.298V38H108.32ZM114.573 38V31.4324H115.551V36.5264L119.54 31.4324H120.48V38H119.514V32.8933L115.487 38H114.573ZM126.98 38V35.688C126.459 35.8277 125.748 35.9675 125.1 35.9675C123.423 35.9675 122.432 35.2434 122.432 33.5157V31.4324H123.398V33.4395C123.398 34.6082 123.982 35.0655 125.214 35.0655C125.837 35.0655 126.408 34.9639 126.98 34.7988V31.4324H127.958V38H126.98ZM133.013 38.1524C131.222 38.1524 129.735 36.7678 129.735 34.7352V34.7098C129.735 32.817 131.056 31.2926 132.886 31.2926C134.829 31.2926 135.947 32.8424 135.947 34.7606C135.947 34.9004 135.947 34.9639 135.935 35.0782H130.726C130.866 36.501 131.869 37.3013 133.038 37.3013C133.953 37.3013 134.563 36.9329 135.109 36.374L135.719 36.9202C135.058 37.6697 134.27 38.1524 133.013 38.1524ZM130.726 34.3541H134.956C134.855 33.1727 134.181 32.1183 132.86 32.1183C131.704 32.1183 130.866 33.0838 130.726 34.3541ZM140.62 38.1524C138.689 38.1524 137.253 36.5899 137.253 34.7479V34.7225C137.253 32.8551 138.689 31.2926 140.62 31.2926C141.864 31.2926 142.627 31.8008 143.249 32.4613L142.601 33.1473C142.08 32.6011 141.509 32.1565 140.607 32.1565C139.273 32.1565 138.257 33.2744 138.257 34.6971V34.7225C138.257 36.1453 139.298 37.2759 140.67 37.2759C141.521 37.2759 142.157 36.8567 142.677 36.2978L143.3 36.8821C142.639 37.6316 141.852 38.1524 140.62 38.1524ZM145.895 31.4324V34.2525H147.089L149.541 31.4324H150.76L147.877 34.6463L150.837 38H149.617L147.115 35.1163H145.895V38H144.917V31.4324H145.895ZM154.019 38.1397C152.799 38.1397 151.567 37.4538 151.567 36.0945V36.0691C151.567 34.6971 152.71 33.9476 154.375 33.9476C155.226 33.9476 155.797 34.062 156.394 34.2271V33.9984C156.394 32.817 155.67 32.2073 154.438 32.2073C153.663 32.2073 153.053 32.3978 152.444 32.69L152.151 31.8897C152.876 31.5467 153.574 31.3434 154.54 31.3434C155.467 31.3434 156.178 31.5848 156.661 32.0675C157.106 32.5122 157.334 33.16 157.334 33.9857V38H156.394V37.0091C155.937 37.6062 155.188 38.1397 154.019 38.1397ZM154.209 37.3648C155.429 37.3648 156.407 36.628 156.407 35.5864V34.9512C155.912 34.8115 155.289 34.6717 154.476 34.6717C153.244 34.6717 152.558 35.2053 152.558 36.031V36.0564C152.558 36.8821 153.333 37.3648 154.209 37.3648ZM160.13 38H158.962L160.88 35.472C159.826 35.2307 159.203 34.532 159.203 33.5157V33.503C159.203 32.2454 160.207 31.4324 161.769 31.4324H164.945V38H163.98V35.561H161.947L160.13 38ZM163.98 32.2454H161.782C160.804 32.2454 160.181 32.7535 160.181 33.503V33.5157C160.181 34.2779 160.766 34.7861 161.782 34.7733H163.98V32.2454ZM171.934 31.4324V34.2525H173.129L175.58 31.4324H176.8L173.916 34.6463L176.876 38H175.657L173.154 35.1163H171.934V38H170.956V31.4324H171.934ZM181.378 31.3816L184.364 38H183.271L180.921 32.5884L178.558 38H177.504L180.476 31.3816H181.378ZM185.905 38V31.4324H186.883V36.5264L190.872 31.4324H191.812V38H190.847V32.8933L186.82 38H185.905ZM194.006 38V31.4324H194.984V34.2398H198.909V31.4324H199.875V38H198.909V35.129H194.984V38H194.006ZM202.07 38V31.4324H203.048V36.5264L207.037 31.4324H207.977V38H207.011V32.8933L202.984 38H202.07ZM211.149 31.4324V34.2525H212.343L214.794 31.4324H216.014L213.13 34.6463L216.09 38H214.871L212.368 35.1163H211.149V38H210.17V31.4324H211.149ZM219.272 38.1397C218.053 38.1397 216.821 37.4538 216.821 36.0945V36.0691C216.821 34.6971 217.964 33.9476 219.628 33.9476C220.479 33.9476 221.051 34.062 221.648 34.2271V33.9984C221.648 32.817 220.924 32.2073 219.692 32.2073C218.917 32.2073 218.307 32.3978 217.697 32.69L217.405 31.8897C218.129 31.5467 218.828 31.3434 219.793 31.3434C220.721 31.3434 221.432 31.5848 221.915 32.0675C222.359 32.5122 222.588 33.16 222.588 33.9857V38H221.648V37.0091C221.191 37.6062 220.441 38.1397 219.272 38.1397ZM219.463 37.3648C220.683 37.3648 221.661 36.628 221.661 35.5864V34.9512C221.165 34.8115 220.543 34.6717 219.73 34.6717C218.498 34.6717 217.812 35.2053 217.812 36.031V36.0564C217.812 36.8821 218.586 37.3648 219.463 37.3648Z" fill="#556473"/>
</svg>
