<svg width="22" height="22" viewBox="0 0 22 22" fill="none" xmlns="http://www.w3.org/2000/svg">
<path d="M16.8044 20.6251C15.9656 20.6251 14.7874 20.3217 13.0231 19.336C10.8777 18.1329 9.21824 17.0222 7.08441 14.8939C5.02707 12.8379 4.0259 11.5067 2.62469 8.95693C1.04172 6.07802 1.31156 4.56896 1.6132 3.924C1.97242 3.15314 2.50266 2.69208 3.18801 2.23446C3.57728 1.97942 3.98923 1.76078 4.41863 1.58134C4.4616 1.56286 4.50156 1.54525 4.53723 1.52935C4.74992 1.43353 5.07219 1.28872 5.48039 1.44341C5.75281 1.54568 5.99602 1.75493 6.37672 2.13091C7.15746 2.90091 8.22437 4.61579 8.61797 5.45798C8.88223 6.0256 9.05711 6.40028 9.05754 6.82052C9.05754 7.31251 8.81004 7.69193 8.50969 8.10142C8.4534 8.17833 8.39754 8.25181 8.3434 8.32314C8.01641 8.75282 7.94465 8.877 7.99191 9.09872C8.08773 9.54431 8.8023 10.8708 9.97664 12.0425C11.151 13.2143 12.4392 13.8837 12.8865 13.9791C13.1177 14.0285 13.2444 13.9538 13.6879 13.6152C13.7514 13.5666 13.8168 13.5163 13.8851 13.4661C14.3431 13.1253 14.7049 12.8843 15.1853 12.8843H15.1879C15.606 12.8843 15.9639 13.0656 16.5569 13.3647C17.3303 13.7548 19.0968 14.808 19.8715 15.5896C20.2483 15.9694 20.4584 16.2118 20.5611 16.4838C20.7158 16.8933 20.5702 17.2142 20.4752 17.4291C20.4593 17.4647 20.4417 17.5038 20.4232 17.5472C20.2423 17.9759 20.0224 18.387 19.7662 18.7753C19.3095 19.4585 18.8467 19.9874 18.0741 20.3471C17.6774 20.5348 17.2432 20.6298 16.8044 20.6251Z" fill="#4F6DCD"/>
</svg>
