<svg width="8" height="12" viewBox="0 0 8 12" fill="none" xmlns="http://www.w3.org/2000/svg">
<path d="M7.29205 5.84504C7.28245 5.80462 7.24163 5.73275 7.2056 5.68559C7.10234 5.55983 0.971568 0.331662 0.87311 0.288992C0.705012 0.212636 0.419245 0.25306 0.284767 0.36984C0.111866 0.520307 0.0734437 0.796537 0.198317 0.980691C0.243943 1.04582 1.28135 1.94862 3.13763 3.53189C4.71535 4.87936 6.00731 5.99102 6.00731 6C6.00731 6.00898 4.71535 7.12064 3.13763 8.46811C1.28135 10.0514 0.243943 10.9542 0.198317 11.0193C0.0734437 11.2035 0.111866 11.4797 0.284767 11.6302C0.419245 11.7469 0.705012 11.7874 0.87311 11.711C0.969166 11.6683 7.10234 6.44242 7.2032 6.31441C7.30646 6.18864 7.33768 6.02246 7.29205 5.84504Z" fill="#4F6DCD"/>
</svg>
