<svg width="20" height="20" viewBox="0 0 20 20" fill="none" xmlns="http://www.w3.org/2000/svg">
<path d="M3.85938 0.0937405C3.10938 0.359365 2.49609 0.980459 2.21875 1.7578L2.12891 2.01171V9.96093V17.9101L2.21875 18.1641C2.5 18.9492 3.12109 19.5703 3.90625 19.8516L4.16016 19.9414L9.9375 19.9531C16.3867 19.9648 15.9023 19.9844 16.5234 19.6836C16.793 19.5508 16.918 19.457 17.1875 19.1836C17.5352 18.8359 17.6953 18.582 17.8594 18.125L17.9492 17.8711L17.9609 11.6797C17.9688 5.6953 17.9688 5.48437 17.8945 5.37108C17.8555 5.30468 16.6953 4.0703 15.3164 2.62499L12.8086 -9.53674e-06H8.46484H4.12109L3.85938 0.0937405ZM12.0391 2.66405C12.0508 4.08983 12.0664 4.42577 12.1133 4.5703C12.3633 5.29687 12.8555 5.79296 13.5547 6.02343C13.793 6.10155 13.9063 6.10937 15.3828 6.12499L16.9531 6.14062V11.8711C16.9531 17.5937 16.9531 17.6016 16.8711 17.8437C16.6758 18.418 16.168 18.8476 15.5586 18.9453C15.2539 18.9961 4.82422 18.9961 4.51563 18.9453C4.02344 18.8672 3.52734 18.5234 3.31641 18.1211C3.09375 17.6992 3.10938 18.2773 3.09375 10.1367C3.08984 5.39452 3.09766 2.54687 3.12109 2.39062C3.23047 1.67968 3.79297 1.09374 4.48047 0.976553C4.58203 0.960928 6.32422 0.945303 8.34766 0.941397L12.0273 0.93749L12.0391 2.66405ZM14.5742 3.33202C15.3984 4.19921 16.1172 4.95702 16.1719 5.01562L16.2695 5.12108L15.0977 5.10937L13.9258 5.09765L13.7031 4.98827C13.4258 4.85155 13.2344 4.64452 13.1289 4.35937C13.0508 4.15233 13.0469 4.0664 13.0469 2.94921C13.0469 2.29296 13.0547 1.7578 13.0625 1.7578C13.0703 1.7578 13.7539 2.46483 14.5742 3.33202Z" fill="white"/>
<path d="M9.77667 6.67956C9.5423 6.82018 9.55011 6.69909 9.53058 9.61706L9.51105 12.2967L8.53449 11.2421C7.99933 10.6639 7.51105 10.1639 7.45245 10.1327C7.31183 10.0585 7.03058 10.0624 6.9212 10.1405C6.73761 10.2694 6.65949 10.6132 6.76886 10.8046C6.8587 10.9647 9.72199 14.0077 9.82355 14.0546C9.96808 14.121 10.1165 14.1132 10.261 14.0311C10.3314 13.996 11.0462 13.2577 11.8509 12.3905C13.4329 10.6874 13.4212 10.7108 13.3235 10.3866C13.2923 10.2811 13.2337 10.2069 13.1517 10.1561C13.0189 10.0741 12.7376 10.0507 12.6204 10.1171C12.5814 10.1366 12.1009 10.6327 11.5579 11.2186L10.5657 12.2811L10.5462 9.60534C10.5267 7.06237 10.5228 6.92956 10.4525 6.82409C10.304 6.60143 10.0071 6.53893 9.77667 6.67956Z" fill="white"/>
<path d="M5.92188 15.6641C5.72656 15.7266 5.54688 15.9492 5.54688 16.1328C5.54688 16.2773 5.67188 16.4883 5.79688 16.5664C5.91406 16.6367 6.07422 16.6406 10.0352 16.6406C14.0586 16.6406 14.1523 16.6406 14.2734 16.5625C14.5742 16.3789 14.5898 15.9687 14.3086 15.7539L14.168 15.6445L10.1016 15.6367C7.86328 15.6328 5.98438 15.6445 5.92188 15.6641Z" fill="white"/>
</svg>
