<svg width="134" height="31" viewBox="0 0 134 31" fill="none" xmlns="http://www.w3.org/2000/svg">
<path d="M1.23113 14V3.74062H8.82306V5.73387H3.42956V7.72712H6.00906C8.35406 7.72712 9.71709 8.78237 9.71709 10.7756V10.7903C9.71709 12.7689 8.38338 14 5.92113 14H1.23113ZM3.42956 12.0067H5.96509C6.84447 12.0067 7.46003 11.5964 7.46003 10.8342V10.8196C7.46003 10.1014 6.91775 9.67641 5.97975 9.67641H3.42956V12.0067ZM13.5865 6.14425V8.38666H15.0228C16.9134 8.38666 18.1885 9.33931 18.1885 11.1567V11.1713C18.1885 12.8861 17.0014 14 14.8469 14H11.3734V6.14425H13.5865ZM13.5718 10.1601V12.1973H14.7883C15.5504 12.1973 16.0047 11.8602 16.0047 11.1713V11.1567C16.0047 10.5851 15.5797 10.1454 14.8176 10.1601H13.5718ZM19.3024 14V6.14425H21.5301V14H19.3024ZM27.2329 14.1759C24.8733 14.1759 23.1438 12.3438 23.1438 10.1161V10.0868C23.1438 7.84437 24.8586 5.99769 27.2622 5.99769C28.7425 5.99769 29.6512 6.496 30.3987 7.31675L29.0356 8.78237C28.5227 8.25475 28.0537 7.91766 27.2476 7.91766C26.1337 7.91766 25.3423 8.88497 25.3423 10.0575V10.0868C25.3423 11.3032 26.119 12.2559 27.3355 12.2559C28.083 12.2559 28.5959 11.9335 29.1382 11.4205L30.4426 12.7396C29.6805 13.575 28.8011 14.1759 27.2329 14.1759ZM33.7643 14V8.12284H31.2141V6.14425H38.5423V8.12284H35.9921V14H33.7643ZM40.0704 16.345V6.14425H42.2982V7.27278C42.8404 6.52531 43.5733 5.99769 44.7458 5.99769C46.5778 5.99769 48.3219 7.434 48.3219 10.0575V10.0868C48.3219 12.7102 46.6071 14.1466 44.7458 14.1466C43.5586 14.1466 42.8258 13.6043 42.2982 12.9741V16.345H40.0704ZM44.1742 12.2559C45.2148 12.2559 46.0941 11.4058 46.0941 10.0868V10.0575C46.0941 8.75306 45.2148 7.88834 44.1742 7.88834C43.1336 7.88834 42.2689 8.75306 42.2689 10.0575V10.0868C42.2689 11.3912 43.1336 12.2559 44.1742 12.2559ZM52.1736 6.14425V8.38666H53.6099C55.5006 8.38666 56.7757 9.33931 56.7757 11.1567V11.1713C56.7757 12.8861 55.5885 14 53.4341 14H49.9605V6.14425H52.1736ZM52.159 10.1601V12.1973H53.3754C54.1376 12.1973 54.5919 11.8602 54.5919 11.1713V11.1567C54.5919 10.5851 54.1669 10.1454 53.4047 10.1601H52.159ZM57.8896 14V6.14425H60.1173V14H57.8896ZM62.112 14V6.14425H64.3251V10.4678L67.3883 6.14425H69.4841V14H67.271V9.51519L64.0906 14H62.112ZM65.7908 5.30884C64.2225 5.30884 63.1673 4.45878 63.0354 2.9785H64.5303C64.7062 3.50612 65.0433 3.85787 65.7908 3.85787C66.5382 3.85787 66.8753 3.50612 67.0512 2.9785H68.5461C68.4142 4.45878 67.359 5.30884 65.7908 5.30884ZM75.3097 11.9481H76.3356L79.8531 3.66734H82.2274L85.7156 11.9481H86.7708V16.0812H84.6603V14H77.4202V16.0812H75.3097V11.9481ZM81.0109 6.15891L78.6513 12.0361H83.3706L81.0109 6.15891ZM91.8441 14.1759C89.4258 14.1759 87.6084 12.3878 87.6084 10.1161V10.0868C87.6084 7.82972 89.4258 5.99769 91.8734 5.99769C94.2917 5.99769 96.109 7.78575 96.109 10.0575V10.0868C96.109 12.3438 94.2917 14.1759 91.8441 14.1759ZM91.8734 12.2559C93.1485 12.2559 93.9106 11.2886 93.9106 10.1161V10.0868C93.9106 8.92894 93.0752 7.91766 91.8441 7.91766C90.569 7.91766 89.8069 8.88497 89.8069 10.0575V10.0868C89.8069 11.2446 90.6423 12.2559 91.8734 12.2559ZM99.9499 6.14425V9.0755H100.492L102.705 6.14425H105.417L102.207 9.98419L105.534 14H102.881L100.507 10.9955H99.9499V14H97.7221V6.14425H99.9499ZM108.534 14V8.12284H105.984V6.14425H113.312V8.12284H110.762V14H108.534ZM118.323 14.1759C115.904 14.1759 114.087 12.3878 114.087 10.1161V10.0868C114.087 7.82972 115.904 5.99769 118.352 5.99769C120.77 5.99769 122.588 7.78575 122.588 10.0575V10.0868C122.588 12.3438 120.77 14.1759 118.323 14.1759ZM118.352 12.2559C119.627 12.2559 120.389 11.2886 120.389 10.1161V10.0868C120.389 8.92894 119.554 7.91766 118.323 7.91766C117.048 7.91766 116.285 8.88497 116.285 10.0575V10.0868C116.285 11.2446 117.121 12.2559 118.352 12.2559ZM124.201 16.345V6.14425H126.428V7.27278C126.971 6.52531 127.704 5.99769 128.876 5.99769C130.708 5.99769 132.452 7.434 132.452 10.0575V10.0868C132.452 12.7102 130.737 14.1466 128.876 14.1466C127.689 14.1466 126.956 13.6043 126.428 12.9741V16.345H124.201ZM128.304 12.2559C129.345 12.2559 130.224 11.4058 130.224 10.0868V10.0575C130.224 8.75306 129.345 7.88834 128.304 7.88834C127.264 7.88834 126.399 8.75306 126.399 10.0575V10.0868C126.399 11.3912 127.264 12.2559 128.304 12.2559Z" fill="url(#paint0_linear_67_12582)"/>
<path opacity="0.5" d="M0.932766 28V21.4047H1.67709V24.3349H5.48353V21.4047H6.22786V28H5.48353V25.0321H1.67709V28H0.932766ZM9.41967 28.1036C8.51517 28.1036 7.60124 27.5949 7.60124 26.5867V26.5679C7.60124 25.5503 8.44921 24.9944 9.68348 24.9944C10.3147 24.9944 10.7387 25.0792 11.1816 25.2017V25.0321C11.1816 24.1559 10.6445 23.7036 9.73059 23.7036C9.15585 23.7036 8.7036 23.845 8.25135 24.0617L8.03465 23.4681C8.5717 23.2137 9.0899 23.0629 9.80596 23.0629C10.4938 23.0629 11.0214 23.242 11.3794 23.6C11.7092 23.9297 11.8788 24.4103 11.8788 25.0227V28H11.1816V27.2651C10.8424 27.7079 10.2865 28.1036 9.41967 28.1036ZM9.561 27.5289C10.4655 27.5289 11.191 26.9824 11.191 26.2098V25.7387C10.8235 25.6351 10.3619 25.5315 9.75885 25.5315C8.84493 25.5315 8.33615 25.9272 8.33615 26.5396V26.5585C8.33615 27.1709 8.91089 27.5289 9.561 27.5289ZM13.4249 29.5075V23.1289H14.1504V24.1088C14.5555 23.534 15.1114 23.0253 16.0159 23.0253C17.1842 23.0253 18.3431 23.9486 18.3431 25.5503V25.5692C18.3431 27.152 17.1937 28.1036 16.0159 28.1036C15.1114 28.1036 14.5273 27.6231 14.1504 27.0672V29.5075H13.4249ZM15.884 27.4535C16.8262 27.4535 17.5988 26.7563 17.5988 25.5786V25.5597C17.5988 24.4008 16.8168 23.6754 15.884 23.6754C14.9795 23.6754 14.1221 24.448 14.1221 25.5503V25.5692C14.1221 26.6998 14.9795 27.4535 15.884 27.4535ZM20.4071 23.1289V25.2205H21.2928L23.1112 23.1289H24.0157L21.8769 25.5126L24.0722 28H23.1677L21.3116 25.8612H20.4071V28H19.6816V23.1289H20.4071ZM27.0578 28.1131C25.5974 28.1131 24.5327 26.9636 24.5327 25.588V25.5692C24.5327 24.1841 25.5974 23.0253 27.0766 23.0253C28.5464 23.0253 29.6111 24.1747 29.6111 25.5503V25.5692C29.6111 26.9542 28.5276 28.1131 27.0578 28.1131ZM27.0766 27.463C28.1319 27.463 28.8668 26.6056 28.8668 25.588V25.5692C28.8668 24.5233 28.0848 23.6659 27.0578 23.6659C26.0025 23.6659 25.2771 24.5233 25.2771 25.5503V25.5692C25.2771 26.615 26.0496 27.463 27.0766 27.463ZM33.07 23.0912L35.2842 28H34.4739L32.7309 23.9863L30.9784 28H30.1964L32.4011 23.0912H33.07ZM38.4027 28.1131C36.9423 28.1131 35.8776 26.9636 35.8776 25.588V25.5692C35.8776 24.1841 36.9423 23.0253 38.4215 23.0253C39.8913 23.0253 40.956 24.1747 40.956 25.5503V25.5692C40.956 26.9542 39.8725 28.1131 38.4027 28.1131ZM38.4215 27.463C39.4768 27.463 40.2117 26.6056 40.2117 25.588V25.5692C40.2117 24.5233 39.4297 23.6659 38.4027 23.6659C37.3474 23.6659 36.6219 24.5233 36.6219 25.5503V25.5692C36.6219 26.615 37.3945 27.463 38.4215 27.463ZM42.2702 28V23.1289H45.8128V23.7884H42.9957V28H42.2702ZM46.9075 28V23.1289H47.633V26.9071L50.5915 23.1289H51.2887V28H50.5727V24.2124L47.5859 28H46.9075ZM56.1098 28V26.2852C55.7235 26.3889 55.1959 26.4925 54.7154 26.4925C53.4717 26.4925 52.7368 25.9555 52.7368 24.6741V23.1289H53.4529V24.6175C53.4529 25.4844 53.8863 25.8235 54.8002 25.8235C55.2619 25.8235 55.6859 25.7482 56.1098 25.6257V23.1289H56.8353V28H56.1098ZM60.5842 28.1131C59.2557 28.1131 58.1534 27.0861 58.1534 25.5786V25.5597C58.1534 24.1559 59.1332 23.0253 60.49 23.0253C61.9315 23.0253 62.7607 24.1747 62.7607 25.5974C62.7607 25.7011 62.7607 25.7482 62.7512 25.833H58.8883C58.9919 26.8882 59.7362 27.4818 60.603 27.4818C61.2814 27.4818 61.7337 27.2086 62.1388 26.794L62.5911 27.1991C62.1011 27.755 61.517 28.1131 60.5842 28.1131ZM58.8883 25.2959H62.0257C61.9504 24.4197 61.451 23.6377 60.4711 23.6377C59.6137 23.6377 58.9919 24.3537 58.8883 25.2959ZM66.226 28.1131C64.7939 28.1131 63.7292 26.9542 63.7292 25.588V25.5692C63.7292 24.1841 64.7939 23.0253 66.226 23.0253C67.1493 23.0253 67.7146 23.4021 68.1763 23.8921L67.6958 24.4008C67.3095 23.9957 66.8855 23.6659 66.2166 23.6659C65.2273 23.6659 64.4735 24.4951 64.4735 25.5503V25.5692C64.4735 26.6244 65.2461 27.463 66.2637 27.463C66.8949 27.463 67.366 27.152 67.7523 26.7375L68.214 27.1709C67.7241 27.7268 67.1399 28.1131 66.226 28.1131ZM70.1388 23.1289V25.2205H71.0244L72.8429 23.1289H73.7474L71.6086 25.5126L73.8039 28H72.8994L71.0433 25.8612H70.1388V28H69.4133V23.1289H70.1388ZM76.1641 28.1036C75.2596 28.1036 74.3457 27.5949 74.3457 26.5867V26.5679C74.3457 25.5503 75.1936 24.9944 76.4279 24.9944C77.0592 24.9944 77.4831 25.0792 77.926 25.2017V25.0321C77.926 24.1559 77.3889 23.7036 76.475 23.7036C75.9003 23.7036 75.448 23.845 74.9958 24.0617L74.7791 23.4681C75.3161 23.2137 75.8343 23.0629 76.5504 23.0629C77.2382 23.0629 77.7658 23.242 78.1238 23.6C78.4536 23.9297 78.6232 24.4103 78.6232 25.0227V28H77.926V27.2651C77.5868 27.7079 77.0309 28.1036 76.1641 28.1036ZM76.3054 27.5289C77.2099 27.5289 77.9354 26.9824 77.9354 26.2098V25.7387C77.5679 25.6351 77.1063 25.5315 76.5033 25.5315C75.5893 25.5315 75.0806 25.9272 75.0806 26.5396V26.5585C75.0806 27.1709 75.6553 27.5289 76.3054 27.5289ZM80.697 28H79.8301L81.2529 26.125C80.4708 25.946 80.0092 25.4278 80.0092 24.6741V24.6647C80.0092 23.7319 80.7535 23.1289 81.9124 23.1289H84.2679V28H83.5518V26.191H82.0443L80.697 28ZM83.5518 23.7319H81.9218C81.1963 23.7319 80.7346 24.1088 80.7346 24.6647V24.6741C80.7346 25.2394 81.1681 25.6163 81.9218 25.6068H83.5518V23.7319ZM89.4518 23.1289V25.2205H90.3375L92.1559 23.1289H93.0604L90.9216 25.5126L93.1169 28H92.2124L90.3563 25.8612H89.4518V28H88.7263V23.1289H89.4518ZM96.4561 23.0912L98.6702 28H97.8599L96.1169 23.9863L94.3644 28H93.5824L95.7871 23.0912H96.4561ZM99.8136 28V23.1289H100.539V26.9071L103.498 23.1289H104.195V28H103.479V24.2124L100.492 28H99.8136ZM105.822 28V23.1289H106.547V25.2111H109.459V23.1289H110.175V28H109.459V25.8707H106.547V28H105.822ZM111.803 28V23.1289H112.528V26.9071L115.486 23.1289H116.184V28H115.468V24.2124L112.481 28H111.803ZM118.536 23.1289V25.2205H119.422L121.24 23.1289H122.145L120.006 25.5126L122.201 28H121.297L119.441 25.8612H118.536V28H117.811V23.1289H118.536ZM124.562 28.1036C123.657 28.1036 122.743 27.5949 122.743 26.5867V26.5679C122.743 25.5503 123.591 24.9944 124.825 24.9944C125.457 24.9944 125.881 25.0792 126.323 25.2017V25.0321C126.323 24.1559 125.786 23.7036 124.873 23.7036C124.298 23.7036 123.846 23.845 123.393 24.0617L123.177 23.4681C123.714 23.2137 124.232 23.0629 124.948 23.0629C125.636 23.0629 126.163 23.242 126.521 23.6C126.851 23.9297 127.021 24.4103 127.021 25.0227V28H126.323V27.2651C125.984 27.7079 125.428 28.1036 124.562 28.1036ZM124.703 27.5289C125.607 27.5289 126.333 26.9824 126.333 26.2098V25.7387C125.965 25.6351 125.504 25.5315 124.901 25.5315C123.987 25.5315 123.478 25.9272 123.478 26.5396V26.5585C123.478 27.1709 124.053 27.5289 124.703 27.5289Z" fill="#556473"/>
<defs>
<linearGradient id="paint0_linear_67_12582" x1="113.966" y1="-26.55" x2="97.4015" y2="40.5821" gradientUnits="userSpaceOnUse">
<stop stop-color="#CED7EE"/>
<stop offset="1" stop-color="#0030C8"/>
</linearGradient>
</defs>
</svg>
