<svg width="128" height="20" viewBox="0 0 128 20" fill="none" xmlns="http://www.w3.org/2000/svg">
<path d="M7.16812 6.48051H2.28259V14.9641H0V4.30835H9.45073V14.9641H7.16812V6.48051Z" fill="#FF4A37"/>
<path d="M11.6719 4.3084H13.9545V5.47643C14.4217 5.02561 14.9222 4.67726 15.4562 4.43135C15.9901 4.18545 16.5908 4.0625 17.2582 4.0625C18.0057 4.0625 18.6932 4.20594 19.3206 4.49282C19.9613 4.76605 20.5086 5.15539 20.9624 5.66086C21.4163 6.15266 21.77 6.74012 22.0237 7.42312C22.2773 8.09256 22.4041 8.82344 22.4041 9.61575C22.4041 10.4354 22.2639 11.1868 21.9836 11.8699C21.7166 12.5393 21.3495 13.1199 20.8823 13.6117C20.4152 14.0898 19.8545 14.4655 19.2005 14.7388C18.5597 15.0119 17.8723 15.1486 17.1381 15.1486C16.484 15.1486 15.8967 15.0461 15.3761 14.8412C14.8555 14.6362 14.3816 14.3494 13.9545 13.9806V19.0625H11.6719V4.3084ZM16.7977 12.9764C17.2516 12.9764 17.672 12.9013 18.0591 12.751C18.4596 12.6007 18.8067 12.3822 19.1003 12.0953C19.394 11.7948 19.6209 11.4396 19.7811 11.0297C19.9546 10.6062 20.0414 10.1281 20.0414 9.59531C20.0414 9.1035 19.968 8.65269 19.8211 8.24281C19.6743 7.81931 19.4607 7.46412 19.1804 7.17725C18.9134 6.87669 18.5931 6.64444 18.2193 6.48056C17.8456 6.31663 17.4318 6.23463 16.9779 6.23463C16.2838 6.23463 15.6697 6.40538 15.1358 6.74694C14.6152 7.08844 14.2215 7.49831 13.9545 7.97644V11.2141C14.2215 11.7879 14.6019 12.2251 15.0958 12.5256C15.5896 12.8262 16.157 12.9764 16.7977 12.9764Z" fill="#FF4A37"/>
<path d="M23.5938 9.61575C23.5938 8.80975 23.7272 8.07206 23.9942 7.40269C24.2612 6.71963 24.6416 6.13217 25.1355 5.64037C25.6294 5.14856 26.2168 4.76605 26.8976 4.49282C27.5783 4.20594 28.3325 4.0625 29.1601 4.0625C29.9744 4.0625 30.7219 4.20594 31.4027 4.49282C32.0968 4.76605 32.6908 5.14856 33.1847 5.64037C33.6786 6.13217 34.059 6.71963 34.326 7.40269C34.6063 8.07206 34.7465 8.80975 34.7465 9.61575C34.7465 10.4218 34.6063 11.1663 34.326 11.8494C34.059 12.5188 33.6786 13.0994 33.1847 13.5912C32.6908 14.083 32.0968 14.4655 31.4027 14.7388C30.7219 15.0119 29.9744 15.1486 29.1601 15.1486C28.3458 15.1486 27.5983 15.0119 26.9175 14.7388C26.2368 14.4655 25.6494 14.083 25.1555 13.5912C24.6616 13.0994 24.2745 12.5188 23.9942 11.8494C23.7272 11.1663 23.5938 10.4218 23.5938 9.61575ZM25.9564 9.61575C25.9564 10.0939 26.0299 10.5379 26.1767 10.9477C26.3369 11.3576 26.5571 11.7127 26.8375 12.0133C27.1178 12.3139 27.4515 12.5529 27.8386 12.7306C28.2391 12.8944 28.6796 12.9764 29.1601 12.9764C29.6407 12.9764 30.0745 12.9013 30.4616 12.751C30.862 12.5871 31.2024 12.3617 31.4828 12.0748C31.7631 11.7743 31.9833 11.4191 32.1435 11.0092C32.3037 10.5994 32.3838 10.1349 32.3838 9.61575C32.3838 9.09662 32.297 8.63219 32.1235 8.22231C31.9633 7.79881 31.7364 7.44362 31.4427 7.15675C31.149 6.85619 30.8086 6.63081 30.4215 6.48056C30.0344 6.31663 29.614 6.23463 29.1601 6.23463C28.7063 6.23463 28.2791 6.31663 27.8786 6.48056C27.4915 6.63081 27.1512 6.85619 26.8575 7.15675C26.5772 7.44362 26.3569 7.79881 26.1967 8.22231C26.0365 8.63219 25.9564 9.09662 25.9564 9.61575Z" fill="#FF4A37"/>
<path d="M35.3516 12.7919H36.557C37.0257 12.1772 37.3405 11.4736 37.5012 10.6813C37.662 9.88895 37.7423 8.99414 37.7423 7.99689V4.30835H46.14V12.7919H47.6066V17.4026H45.477V14.9641H37.4811V17.4026H35.3516V12.7919ZM43.8497 12.7919V6.48051H39.912V9.20589C39.912 9.86164 39.825 10.5174 39.6508 11.1731C39.4768 11.8152 39.2357 12.3548 38.9276 12.7919H43.8497Z" fill="#3981F1"/>
<path d="M48.0703 9.61575C48.0703 8.80975 48.2042 8.07206 48.4721 7.40269C48.7399 6.71963 49.1217 6.13217 49.6172 5.64037C50.1128 5.14856 50.7021 4.76605 51.3851 4.49282C52.0682 4.20594 52.825 4.0625 53.6554 4.0625C54.4723 4.0625 55.2224 4.20594 55.9054 4.49282C56.6019 4.76605 57.1979 5.14856 57.6935 5.64037C58.189 6.13217 58.5708 6.71963 58.8386 7.40269C59.1199 8.07206 59.2605 8.80975 59.2605 9.61575C59.2605 10.4218 59.1199 11.1663 58.8386 11.8494C58.5708 12.5188 58.189 13.0994 57.6935 13.5912C57.1979 14.083 56.6019 14.4655 55.9054 14.7388C55.2224 15.0119 54.4723 15.1486 53.6554 15.1486C52.8384 15.1486 52.0883 15.0119 51.4053 14.7388C50.7222 14.4655 50.1329 14.083 49.6373 13.5912C49.1417 13.0994 48.7533 12.5188 48.4721 11.8494C48.2042 11.1663 48.0703 10.4218 48.0703 9.61575ZM50.4409 9.61575C50.4409 10.0939 50.5146 10.5379 50.6619 10.9477C50.8226 11.3576 51.0436 11.7127 51.3249 12.0133C51.6062 12.3139 51.941 12.5529 52.3294 12.7306C52.7312 12.8944 53.1732 12.9764 53.6554 12.9764C54.1375 12.9764 54.5728 12.9013 54.9612 12.751C55.363 12.5871 55.7045 12.3617 55.9858 12.0748C56.2671 11.7743 56.4881 11.4191 56.6488 11.0092C56.8095 10.5994 56.8899 10.1349 56.8899 9.61575C56.8899 9.09662 56.8028 8.63219 56.6287 8.22231C56.468 7.79881 56.2403 7.44362 55.9456 7.15675C55.651 6.85619 55.3094 6.63081 54.9211 6.48056C54.5326 6.31663 54.1108 6.23463 53.6554 6.23463C53.2 6.23463 52.7714 6.31663 52.3696 6.48056C51.9812 6.63081 51.6396 6.85619 51.345 7.15675C51.0637 7.44362 50.8427 7.79881 50.682 8.22231C50.5213 8.63219 50.4409 9.09662 50.4409 9.61575Z" fill="#3981F1"/>
<path d="M60.6797 4.30835H62.9699V8.63214L67.4901 4.30835H70.4835L65.4007 9.12395L70.6645 14.9641H67.7315L63.7336 10.5788L62.9699 11.337V14.9641H60.6797V4.30835Z" fill="#3981F1"/>
<path d="M71.3906 4.30835H81.235V6.48051H77.4578V14.9641H75.1678V6.48051H71.3906V4.30835Z" fill="#3981F1"/>
<path d="M81.7344 9.61575C81.7344 8.80975 81.8685 8.07206 82.1367 7.40269C82.4042 6.71963 82.7858 6.13217 83.2814 5.64037C83.7769 5.14856 84.3663 4.76605 85.0496 4.49282C85.7322 4.20594 86.4893 4.0625 87.3194 4.0625C88.1368 4.0625 88.8865 4.20594 89.5698 4.49282C90.2665 4.76605 90.862 5.14856 91.3575 5.64037C91.8531 6.13217 92.2353 6.71963 92.5028 7.40269C92.7844 8.07206 92.9246 8.80975 92.9246 9.61575C92.9246 10.4218 92.7844 11.1663 92.5028 11.8494C92.2353 12.5188 91.8531 13.0994 91.3575 13.5912C90.862 14.083 90.2665 14.4655 89.5698 14.7388C88.8865 15.0119 88.1368 15.1486 87.3194 15.1486C86.5027 15.1486 85.7524 15.0119 85.0697 14.7388C84.3864 14.4655 83.797 14.083 83.3015 13.5912C82.8059 13.0994 82.4177 12.5188 82.1367 11.8494C81.8685 11.1663 81.7344 10.4218 81.7344 9.61575ZM84.1054 9.61575C84.1054 10.0939 84.1792 10.5379 84.3261 10.9477C84.487 11.3576 84.7076 11.7127 84.9892 12.0133C85.2702 12.3139 85.6055 12.5529 85.9937 12.7306C86.3954 12.8944 86.8373 12.9764 87.3194 12.9764C87.8016 12.9764 88.2374 12.9013 88.6257 12.751C89.0273 12.5871 89.3687 12.3617 89.6503 12.0748C89.9313 11.7743 90.1525 11.4191 90.3128 11.0092C90.4737 10.5994 90.5542 10.1349 90.5542 9.61575C90.5542 9.09662 90.467 8.63219 90.2927 8.22231C90.1324 7.79881 89.9044 7.44362 89.61 7.15675C89.315 6.85619 88.9737 6.63081 88.5854 6.48056C88.1972 6.31663 87.7748 6.23463 87.3194 6.23463C86.8641 6.23463 86.4356 6.31663 86.034 6.48056C85.6457 6.63081 85.3037 6.85619 85.0093 7.15675C84.7277 7.44362 84.5071 7.79881 84.3462 8.22231C84.1859 8.63219 84.1054 9.09662 84.1054 9.61575Z" fill="#3981F1"/>
<path d="M94.3203 4.3084H96.6103V5.47643C97.079 5.02561 97.5813 4.67726 98.117 4.43135C98.6528 4.18545 99.2556 4.0625 99.9255 4.0625C100.675 4.0625 101.365 4.20594 101.995 4.49282C102.637 4.76605 103.186 5.15539 103.642 5.66086C104.097 6.15266 104.452 6.74012 104.707 7.42312C104.961 8.09256 105.088 8.82344 105.088 9.61575C105.088 10.4354 104.948 11.1868 104.666 11.8699C104.399 12.5393 104.031 13.1199 103.561 13.6117C103.093 14.0898 102.53 14.4655 101.874 14.7388C101.231 15.0119 100.541 15.1486 99.8048 15.1486C99.1484 15.1486 98.5589 15.0461 98.0366 14.8412C97.5142 14.6362 97.0388 14.3494 96.6103 13.9806V19.0625H94.3203V4.3084ZM99.4635 12.9764C99.9188 12.9764 100.341 12.9013 100.729 12.751C101.131 12.6007 101.479 12.3822 101.774 12.0953C102.068 11.7948 102.296 11.4396 102.457 11.0297C102.631 10.6062 102.718 10.1281 102.718 9.59531C102.718 9.1035 102.644 8.65269 102.497 8.24281C102.35 7.81931 102.135 7.46412 101.854 7.17725C101.586 6.87669 101.265 6.64444 100.89 6.48056C100.514 6.31663 100.099 6.23463 99.6439 6.23463C98.9478 6.23463 98.3316 6.40538 97.7958 6.74694C97.2735 7.08844 96.8785 7.49831 96.6103 7.97644V11.2141C96.8785 11.7879 97.26 12.2251 97.7556 12.5256C98.2511 12.8262 98.8204 12.9764 99.4635 12.9764Z" fill="#3981F1"/>
<path d="M106.227 9.61575C106.227 8.80975 106.361 8.07206 106.628 7.40269C106.896 6.71963 107.278 6.13217 107.774 5.64037C108.269 5.14856 108.858 4.76605 109.541 4.49282C110.224 4.20594 110.981 4.0625 111.812 4.0625C112.628 4.0625 113.379 4.20594 114.062 4.49282C114.758 4.76605 115.354 5.14856 115.85 5.64037C116.345 6.13217 116.727 6.71963 116.995 7.40269C117.276 8.07206 117.417 8.80975 117.417 9.61575C117.417 10.4218 117.276 11.1663 116.995 11.8494C116.727 12.5188 116.345 13.0994 115.85 13.5912C115.354 14.083 114.758 14.4655 114.062 14.7388C113.379 15.0119 112.628 15.1486 111.812 15.1486C110.995 15.1486 110.245 15.0119 109.561 14.7388C108.879 14.4655 108.289 14.083 107.794 13.5912C107.298 13.0994 106.91 12.5188 106.628 11.8494C106.361 11.1663 106.227 10.4218 106.227 9.61575ZM108.597 9.61575C108.597 10.0939 108.671 10.5379 108.818 10.9477C108.979 11.3576 109.2 11.7127 109.481 12.0133C109.762 12.3139 110.097 12.5529 110.486 12.7306C110.888 12.8944 111.33 12.9764 111.812 12.9764C112.294 12.9764 112.729 12.9013 113.117 12.751C113.52 12.5871 113.861 12.3617 114.142 12.0748C114.423 11.7743 114.644 11.4191 114.805 11.0092C114.966 10.5994 115.046 10.1349 115.046 9.61575C115.046 9.09662 114.959 8.63219 114.785 8.22231C114.624 7.79881 114.397 7.44362 114.102 7.15675C113.807 6.85619 113.466 6.63081 113.077 6.48056C112.689 6.31663 112.267 6.23463 111.812 6.23463C111.356 6.23463 110.928 6.31663 110.526 6.48056C110.137 6.63081 109.796 6.85619 109.502 7.15675C109.22 7.44362 108.999 7.79881 108.838 8.22231C108.677 8.63219 108.597 9.09662 108.597 9.61575Z" fill="#3981F1"/>
<path d="M118.836 4.30835H123.296C124.756 4.30835 125.854 4.5201 126.591 4.9436C127.327 5.36709 127.696 6.09797 127.696 7.1362C127.696 7.62801 127.589 8.0447 127.374 8.3862C127.16 8.72776 126.879 9.03514 126.531 9.30832C127.026 9.49964 127.394 9.82064 127.636 10.2715C127.876 10.7086 127.997 11.2141 127.997 11.7879C127.997 12.8534 127.629 13.6526 126.892 14.1854C126.156 14.7045 125.118 14.9641 123.778 14.9641H118.836V4.30835ZM121.127 10.5583V12.8534H123.557C124.24 12.8534 124.756 12.7646 125.104 12.587C125.452 12.4094 125.627 12.1226 125.627 11.7264C125.627 11.3029 125.459 11.0023 125.124 10.8248C124.803 10.6471 124.3 10.5583 123.618 10.5583H121.127ZM121.127 6.41901V8.52964H123.818C124.287 8.52964 124.656 8.44089 124.923 8.26326C125.191 8.0857 125.325 7.81245 125.325 7.44357C125.325 7.00645 125.145 6.72639 124.782 6.60345C124.434 6.48051 123.919 6.41901 123.235 6.41901H121.127Z" fill="#3981F1"/>
</svg>
