<svg width="30" height="31" viewBox="0 0 30 31" fill="none" xmlns="http://www.w3.org/2000/svg">
<path d="M24.7088 9.12766H22.0417V6.45906C22.0417 4.55132 20.4448 3 18.4158 3H11.5848C9.55463 3 7.95833 4.55132 7.95833 6.45906V9.12766H5.29063C3.47279 9.12766 2 10.4507 2 12.1593V23.9076C2 25.6157 3.47279 27 5.29063 27H24.7088C26.5261 27 28 25.6157 28 23.9071V12.1593C28 10.4507 26.5261 9.12766 24.7088 9.12766ZM10.125 6.45906C10.125 5.74468 10.8248 5.04255 11.5848 5.04255H18.4158C19.1735 5.04255 19.875 5.74468 19.875 6.45906V9.12766H10.125V6.45906ZM20.9583 20.3617H17.1667V23.9362H12.8333V20.3617H9.04167V16.2766H12.8333V12.7021H17.1667V16.2766H20.9583V20.3617Z" fill="#3D7C85" fill-opacity="0.2"/>
</svg>
