<svg width="30" height="31" viewBox="0 0 30 31" fill="none" xmlns="http://www.w3.org/2000/svg">
<path d="M25.6285 21.2656L18.7906 9.86914C18.7672 9.83398 18.7555 9.79297 18.7555 9.74609V5.1875C18.7555 5.05859 18.8609 4.95312 18.9898 4.95312C19.3766 4.95312 19.693 4.63672 19.693 4.25V4.01562C19.693 3.62891 19.3766 3.3125 18.9898 3.3125H11.0035C10.6168 3.3125 10.3004 3.62891 10.3004 4.01562V4.25C10.3004 4.63672 10.6168 4.95312 11.0035 4.95312C11.1324 4.95312 11.2379 5.05859 11.2379 5.1875V9.75195C11.2379 9.79297 11.2262 9.83398 11.2027 9.86914L4.43516 21.2656C3.94297 22.1914 3.70274 23.1055 3.72617 23.9375C3.79063 26.0762 5.41367 27.6875 7.54649 27.6875H22.5816C24.7145 27.6875 26.232 26.0703 26.2848 23.9375C26.2965 23.1055 26.1266 22.1973 25.6285 21.2656ZM9.48008 17.375C9.1168 17.375 8.88828 16.9766 9.07578 16.666L12.6207 10.707C12.7906 10.4199 12.8844 10.0859 12.8844 9.75195V5.1875C12.8844 5.10547 12.8785 5.0293 12.8727 4.95312H17.1324C17.1207 5.0293 17.1207 5.10547 17.1207 5.1875V9.75195C17.1207 10.0918 17.2145 10.4258 17.3902 10.7129L20.9293 16.666C21.1168 16.9766 20.8883 17.375 20.525 17.375H9.48008Z" fill="#3D7C85" fill-opacity="0.2"/>
</svg>
