<svg width="30" height="31" viewBox="0 0 30 31" fill="none" xmlns="http://www.w3.org/2000/svg">
<path d="M27.0146 3.48828C26.3036 2.77846 25.341 2.37831 24.3363 2.375H24.2918C23.805 2.37863 23.3239 2.48038 22.8773 2.67419C22.4307 2.86799 22.0277 3.14985 21.6926 3.50293C21.6701 3.526 21.6492 3.55046 21.6299 3.57617L18.4658 7.66367C18.1365 8.07969 17.7193 8.17227 17.4826 7.93555L17.3713 7.82422C16.8435 7.29648 16.1278 7 15.3814 7C14.6351 7 13.9193 7.29648 13.3916 7.82422C12.8639 8.35196 12.5674 9.06773 12.5674 9.81406C12.5674 10.5604 12.8639 11.2762 13.3916 11.8039L13.9723 12.3846C13.9832 12.3955 13.9918 12.4084 13.9977 12.4226C14.0036 12.4368 14.0066 12.4521 14.0066 12.4675C14.0066 12.4829 14.0036 12.4981 13.9977 12.5124C13.9918 12.5266 13.9832 12.5395 13.9723 12.5504L3.43944 23.0809C3.16405 23.3545 2.74804 23.9287 2.27636 25.7539C2.03847 26.6744 1.89491 27.4918 1.88905 27.5258C1.86545 27.6605 1.87163 27.7988 1.90716 27.9309C1.94268 28.063 2.00669 28.1858 2.09468 28.2905C2.18268 28.3953 2.29253 28.4795 2.41654 28.5373C2.54054 28.5951 2.67569 28.625 2.81249 28.625C2.86432 28.6251 2.91607 28.6208 2.96718 28.6121C3.00116 28.6063 3.81327 28.4697 4.73261 28.2348C6.55312 27.7695 7.13788 27.3418 7.41913 27.0629L17.9525 16.5283C17.9745 16.5065 18.0042 16.4942 18.0351 16.4942C18.0661 16.4942 18.0958 16.5065 18.1178 16.5283L18.699 17.1096C19.2268 17.6373 19.9427 17.9338 20.6891 17.9337C21.4355 17.9336 22.1513 17.6371 22.679 17.1093C23.2067 16.5815 23.5032 15.8656 23.5031 15.1192C23.5031 14.3728 23.2065 13.657 22.6787 13.1293L22.5855 13.0391C22.2926 12.7461 22.4379 12.3295 22.8387 12.0348L26.9256 8.87422C26.9557 8.85003 26.9844 8.82421 27.0117 8.79688C27.3629 8.45322 27.6423 8.0431 27.8334 7.59042C28.0245 7.13773 28.1236 6.65154 28.125 6.16016C28.1265 5.6634 28.0291 5.17132 27.8384 4.71259C27.6478 4.25386 27.3678 3.83767 27.0146 3.48828ZM14.6941 17.1348C14.523 17.3059 13.7461 17.5988 13.3236 17.1764C12.9012 16.7539 13.1924 15.9799 13.3641 15.8082L15.2976 13.8746C15.3085 13.8637 15.3215 13.8551 15.3357 13.8492C15.3499 13.8433 15.3652 13.8402 15.3806 13.8402C15.396 13.8402 15.4112 13.8433 15.4254 13.8492C15.4397 13.8551 15.4526 13.8637 15.4635 13.8746L16.626 15.0365C16.6369 15.0474 16.6455 15.0603 16.6514 15.0746C16.6573 15.0888 16.6603 15.104 16.6603 15.1194C16.6603 15.1348 16.6573 15.1501 16.6514 15.1643C16.6455 15.1785 16.6369 15.1915 16.626 15.2023L14.6941 17.1348Z" fill="#3D7C85" fill-opacity="0.2"/>
</svg>
