<svg width="30" height="31" viewBox="0 0 30 31" fill="none" xmlns="http://www.w3.org/2000/svg">
<g clip-path="url(#clip0_1255_8447)">
<path fill-rule="evenodd" clip-rule="evenodd" d="M8.75 3C8.43634 2.99986 8.13409 3.11764 7.90324 3.32998C7.67238 3.54231 7.52978 3.83367 7.50375 4.14625L6.96875 10.5738C6.95464 10.7432 6.90613 10.9079 6.82618 11.0579C6.74622 11.2079 6.63651 11.3401 6.50375 11.4462L4.68875 12.8987C4.39601 13.1328 4.15966 13.4297 3.99716 13.7675C3.83467 14.1052 3.7502 14.4752 3.75 14.85V25.5C3.75 26.163 4.01339 26.7989 4.48223 27.2678C4.95107 27.7366 5.58696 28 6.25 28H13.75C14.413 28 15.0489 27.7366 15.5178 27.2678C15.9866 26.7989 16.25 26.163 16.25 25.5V14.85C16.25 14.4753 16.1657 14.1054 16.0034 13.7676C15.8411 13.4299 15.605 13.1329 15.3125 12.8987L13.4963 11.4462C13.3635 11.3401 13.2538 11.2079 13.1738 11.0579C13.0939 10.9079 13.0454 10.7432 13.0312 10.5738L12.4963 4.14625C12.4702 3.83367 12.3276 3.54231 12.0968 3.32998C11.8659 3.11764 11.5637 2.99986 11.25 3H8.75ZM19.3687 10.5C18.8962 10.4998 18.4394 10.6701 18.0823 10.9796C17.7252 11.2892 17.4918 11.7172 17.425 12.185L16.7925 16.61C16.6388 17.6852 16.8787 18.7798 17.4681 19.6921C18.0575 20.6044 18.9566 21.2731 20 21.575V25.5H19.375C19.0435 25.5 18.7255 25.6317 18.4911 25.8661C18.2567 26.1005 18.125 26.4185 18.125 26.75C18.125 27.0815 18.2567 27.3995 18.4911 27.6339C18.7255 27.8683 19.0435 28 19.375 28H23.125C23.4565 28 23.7745 27.8683 24.0089 27.6339C24.2433 27.3995 24.375 27.0815 24.375 26.75C24.375 26.4185 24.2433 26.1005 24.0089 25.8661C23.7745 25.6317 23.4565 25.5 23.125 25.5H22.5V21.575C23.5431 21.2731 24.4421 20.6046 25.0314 19.6926C25.6208 18.7805 25.8609 17.6863 25.7075 16.6112L25.075 12.1862C25.0085 11.7182 24.7752 11.2899 24.4181 10.9801C24.061 10.6703 23.604 10.4998 23.1312 10.5H19.3687Z" fill="#3D7C85" fill-opacity="0.2"/>
</g>
<defs>
<clipPath id="clip0_1255_8447">
<rect width="30" height="30" fill="white" transform="translate(0 0.5)"/>
</clipPath>
</defs>
</svg>
