<svg width="30" height="31" viewBox="0 0 30 31" fill="none" xmlns="http://www.w3.org/2000/svg">
<path d="M15 16C16.6671 16 18.2659 15.3152 19.4447 14.0962C20.6235 12.8772 21.2857 11.2239 21.2857 9.5C21.2857 7.77609 20.6235 6.12279 19.4447 4.90381C18.2659 3.68482 16.6671 3 15 3C13.3329 3 11.7341 3.68482 10.5553 4.90381C9.37653 6.12279 8.71429 7.77609 8.71429 9.5C8.71429 11.2239 9.37653 12.8772 10.5553 14.0962C11.7341 15.3152 13.3329 16 15 16ZM10.2857 18.8031C6.65179 19.9051 4 23.3785 4 27.4918C4 28.3246 4.65313 29 5.45848 29H24.5415C25.3469 29 26 28.3246 26 27.4918C26 23.3785 23.3482 19.9051 19.7143 18.8031V21.3828C21.0696 21.7434 22.0714 23.018 22.0714 24.5312V26.5625C22.0714 27.0094 21.7179 27.375 21.2857 27.375H20.5C20.0679 27.375 19.7143 27.0094 19.7143 26.5625C19.7143 26.1156 20.0679 25.75 20.5 25.75V24.5312C20.5 23.6324 19.7978 22.9062 18.9286 22.9062C18.0594 22.9062 17.3571 23.6324 17.3571 24.5312V25.75C17.7893 25.75 18.1429 26.1156 18.1429 26.5625C18.1429 27.0094 17.7893 27.375 17.3571 27.375H16.5714C16.1393 27.375 15.7857 27.0094 15.7857 26.5625V24.5312C15.7857 23.018 16.7875 21.7434 18.1429 21.3828V18.4832C17.8482 18.4527 17.5487 18.4375 17.2442 18.4375H12.7558C12.4513 18.4375 12.1518 18.4527 11.8571 18.4832V21.8043C12.9915 22.1547 13.8214 23.2414 13.8214 24.5312C13.8214 26.1004 12.5888 27.375 11.0714 27.375C9.55402 27.375 8.32143 26.1004 8.32143 24.5312C8.32143 23.2414 9.15134 22.1547 10.2857 21.8043V18.8031ZM11.0714 25.75C11.384 25.75 11.6838 25.6216 11.9048 25.393C12.1258 25.1645 12.25 24.8545 12.25 24.5312C12.25 24.208 12.1258 23.898 11.9048 23.6695C11.6838 23.4409 11.384 23.3125 11.0714 23.3125C10.7589 23.3125 10.4591 23.4409 10.2381 23.6695C10.017 23.898 9.89286 24.208 9.89286 24.5312C9.89286 24.8545 10.017 25.1645 10.2381 25.393C10.4591 25.6216 10.7589 25.75 11.0714 25.75Z" fill="#3D7C85" fill-opacity="0.2"/>
</svg>
