<svg width="76" height="96" viewBox="0 0 76 96" fill="none" xmlns="http://www.w3.org/2000/svg">
<path d="M23.8496 58C25.9088 63.826 31.465 68 37.996 68C44.527 68 50.0835 63.826 52.1425 58M23 38H23.045M53 38H53.045M3 38C3 18.67 18.67 3 38 3C57.33 3 73 18.67 73 38V93L68.914 90.276C65.026 87.684 63.0825 86.3885 61.025 86.0225C59.2105 85.7 57.3425 85.885 55.6265 86.557C53.681 87.319 52.029 88.971 48.725 92.275C48.3245 92.6755 47.6755 92.675 47.2745 92.275C45.0195 90.026 43.774 88.843 42.44 88.182C39.6425 86.7955 36.3575 86.7955 33.56 88.182C32.226 88.843 30.9805 90.026 28.7255 92.275C28.3245 92.675 27.6754 92.6755 27.275 92.275C23.9711 88.971 22.3192 87.319 20.3735 86.557C18.6576 85.885 16.7894 85.7 14.9751 86.0225C12.9176 86.3885 10.9738 87.684 7.0861 90.276L3 93V38Z" stroke="#3D7C85" stroke-opacity="0.05" stroke-width="5" stroke-linecap="round" stroke-linejoin="round"/>
</svg>
